<?xml version="1.0" encoding="UTF-8" standalone="no"?>
<!-- Created with Inkscape (http://www.inkscape.org/) -->

<svg
   version="1.1"
   id="svg1"
   width="100%"
   height="100%"
   viewBox="0 0 8800 14200"
   sodipodi:docname="Chi Duly Logo FINAL hi res.eps"
   xmlns:inkscape="http://www.inkscape.org/namespaces/inkscape"
   xmlns:sodipodi="http://sodipodi.sourceforge.net/DTD/sodipodi-0.dtd"
   xmlns="http://www.w3.org/2000/svg"
   xmlns:svg="http://www.w3.org/2000/svg">
  <defs
     id="defs1">
    <clipPath
       clipPathUnits="userSpaceOnUse"
       id="clipPath3">
      <path
         d="M 0,1 H 87896.6 V 106361 H 0 Z"
         transform="translate(0,0.0025)"
         id="path3" />
    </clipPath>
    <clipPath
       clipPathUnits="userSpaceOnUse"
       id="clipPath5">
      <path
         d="M 0,1 H 87896.6 V 106361 H 0 Z"
         transform="translate(0,0.0025)"
         id="path5" />
    </clipPath>
    <clipPath
       clipPathUnits="userSpaceOnUse"
       id="clipPath7">
      <path
         d="M 0,1 H 87896.6 V 106361 H 0 Z"
         transform="translate(0,0.0025)"
         id="path7" />
    </clipPath>
    <clipPath
       clipPathUnits="userSpaceOnUse"
       id="clipPath9">
      <path
         d="M 0,1 H 87896.6 V 106361 H 0 Z"
         transform="translate(0,0.0025)"
         id="path9" />
    </clipPath>
    <clipPath
       clipPathUnits="userSpaceOnUse"
       id="clipPath11">
      <path
         d="M 0,1 H 87896.6 V 106361 H 0 Z"
         transform="translate(0,0.0025)"
         id="path11" />
    </clipPath>
    <clipPath
       clipPathUnits="userSpaceOnUse"
       id="clipPath13">
      <path
         d="M 0,1 H 87896.6 V 106361 H 0 Z"
         transform="translate(0,0.0025)"
         id="path13" />
    </clipPath>
    <clipPath
       clipPathUnits="userSpaceOnUse"
       id="clipPath15">
      <path
         d="M 0,1 H 87896.6 V 106361 H 0 Z"
         transform="translate(0,0.0025)"
         id="path15" />
    </clipPath>
  </defs>
  <sodipodi:namedview
     id="namedview1"
     pagecolor="#ffffff"
     bordercolor="#000000"
     borderopacity="0.25"
     inkscape:showpageshadow="2"
     inkscape:pageopacity="0.0"
     inkscape:pagecheckerboard="0"
     inkscape:deskcolor="#d1d1d1">
    <inkscape:page
       x="0"
       y="0"
       inkscape:label="1"
       id="page1"
       width="100%"
       height="100%"
       margin="0"
       bleed="0" />
  </sodipodi:namedview>
  <g
     id="g1"
     inkscape:groupmode="layer"
     inkscape:label="1">
    <g
       id="group-R5">
      <path
         id="path2"
         d="M 1811.23,89575.7 H 3092.3 c -412.09,1207.4 -636.85,2536.8 -636.85,3954.8 0,6047.4 4082.58,10558.5 9699.85,10558.5 2792.7,0 5187.5,-981 6937,-2547 l 1442.9,1872 c -2148.9,1873 -5033.9,2947 -8379.9,2947 C 5156.52,106361 0,100959 0,93530.5 0,90888 655.313,88503.9 1811.23,86526.1 v 3049.6"
         style="fill:#231f20;fill-opacity:1;fill-rule:nonzero;stroke:none"
         transform="matrix(0.13333333,0,0,-0.13333333,0,14181.467)"
         clip-path="url(#clipPath3)" />
      <path
         id="path4"
         d="m 16800.4,80806.8 c 574.5,-1345.3 889.8,-2865.9 889.8,-4500.7 0,-5863.3 -4082.5,-10252.7 -9730.55,-10252.7 H 4951.4 v 20566 h 3008.25 c 2697.15,0 5035.65,-1009.6 6744.75,-2704.7 844.4,208 1642.5,522.2 2382.5,938.5 -2189.8,2488.4 -5401.7,3976 -9127.25,3976 H 2557.21 V 63843.5 h 5402.44 c 6998.55,0 12186.05,5218.2 12186.05,12462.6 0,2012.4 -398.5,3868.6 -1121,5502.8 -702.5,-402.7 -1446.1,-736.9 -2224.3,-1002.1"
         style="fill:#231f20;fill-opacity:1;fill-rule:nonzero;stroke:none"
         transform="matrix(0.13333333,0,0,-0.13333333,0,14181.467)"
         clip-path="url(#clipPath5)" />
      <path
         id="path6"
         d="m 10914.8,80758.7 c 32.5,-3.1 65.2,-5.4 97.7,-8.3 148.8,-12.8 298.4,-23.2 448.9,-30.9 47.4,-2.7 94.6,-5.3 142.1,-7.3 182.7,-7.5 366.4,-12.6 551.8,-12.6 3376.2,0 6261.9,1105.1 8441,3008.1 l -1442.6,1842 c -1780.2,-1596 -4174.7,-2578.1 -6998.4,-2578.1 -153.6,0 -305.7,3.7 -456.9,10.3 -60,2.8 -118.9,7.8 -178.5,11.5 -89.9,5.6 -179.9,10.7 -268.8,18.5 -74.6,6.6 -148.2,15.7 -222.1,24 -72,8 -144.3,15.4 -215.7,24.8 -82.2,11.1 -163.4,24.3 -244.9,37.4 -61.3,9.7 -122.8,19.1 -183.8,29.9 -86.2,15.5 -171.6,33.1 -256.9,50.8 -54.7,11.2 -109.5,22.4 -163.86,34.6 -87.36,19.9 -174.03,41.3 -260.39,63.4 -51.41,13.1 -102.83,26.4 -153.78,40.4 -85.89,23.4 -171.02,48.3 -255.84,74.2 -51.72,15.8 -103.29,31.8 -154.56,48.5 -80.59,26 -160.63,53.2 -240.15,81.2 -1205.7,427.8 -2286.27,1091.4 -3201.74,1950.6 v -2975.6 c 1217.64,-760.8 2591.7,-1299.1 4081.5,-1577.7 1,-0.3 2.08,-0.5 3.16,-0.7 370.66,-69.2 748.26,-122.8 1132.76,-159"
         style="fill:#231f20;fill-opacity:1;fill-rule:nonzero;stroke:none"
         transform="matrix(0.13333333,0,0,-0.13333333,0,14181.467)"
         clip-path="url(#clipPath7)" />
      <path
         id="path8"
         d="m 58752.6,63843.5 h 5899.6 v 2209.9 h -5899.6 v -2209.9"
         style="fill:#231f20;fill-opacity:1;fill-rule:nonzero;stroke:none"
         transform="matrix(0.13333333,0,0,-0.13333333,0,14181.467)"
         clip-path="url(#clipPath9)" />
      <path
         id="path10"
         d="m 42980.9,84379.2 c -323.1,0 -585,262.1 -585,585.5 0,323.3 261.9,585 585,585 323.4,0 585.7,-261.7 585.7,-585 0,-323.4 -262.3,-585.5 -585.7,-585.5 z m 1197,-18325.8 V 106023 H 41784.1 V 63843.5 h 13082 v 2209.9 H 44177.9"
         style="fill:#231f20;fill-opacity:1;fill-rule:nonzero;stroke:none"
         transform="matrix(0.13333333,0,0,-0.13333333,0,14181.467)"
         clip-path="url(#clipPath11)" />
      <path
         id="path12"
         d="m 56840.2,64351.8 c -323.4,0 -585.3,262.3 -585.3,585.6 0,323.3 261.9,585.3 585.3,585.3 322.8,0 585.3,-262 585.3,-585.3 0,-323.3 -262.5,-585.6 -585.3,-585.6 z m 6445.7,24477.4 -6476.6,-11663.9 -6445.9,11663.9 h -2670.3 l 7919,-14396.1 V 56152.8 h 2394.3 v 18280.3 l 7980.8,14396.1 h -2701.3"
         style="fill:#231f20;fill-opacity:1;fill-rule:nonzero;stroke:none"
         transform="matrix(0.13333333,0,0,-0.13333333,0,14181.467)"
         clip-path="url(#clipPath13)" />
      <path
         id="path14"
         d="m 38505.4,84379.2 c -323.1,0 -585,262.1 -585,585.5 0,323.3 261.9,585 585,585 323.5,0 585.7,-261.7 585.7,-585 0,-323.4 -262.2,-585.5 -585.7,-585.5 z M 37332.6,72315.1 c 0,-3621.6 -2762.1,-6537.5 -6322.8,-6537.5 -3591.7,0 -6354.2,2915.9 -6354.2,6537.5 v 20755.2 h 12677 z M 23421.1,84379.2 c -323.4,0 -585.1,262.1 -585.1,585.5 0,323.3 261.7,585 585.1,585 323.2,0 585.4,-261.7 585.4,-585 0,-323.4 -262.2,-585.5 -585.4,-585.5 z m 13942.5,21643.8 -31,-10742.9 h -12677 l -30.8,10742.9 H 22231 l 30.8,-33707.9 c 0,-4942.1 3836.3,-8809 8748,-8809 4880.4,0 8717.2,3866.9 8717.2,8809 l 31,33707.9 h -2394.4"
         style="fill:#231f20;fill-opacity:1;fill-rule:nonzero;stroke:none"
         transform="matrix(0.13333333,0,0,-0.13333333,0,14181.467)"
         clip-path="url(#clipPath15)" />
    </g>
  </g>
</svg>
