<?xml version="1.0" encoding="UTF-8" standalone="no"?>
<!-- Created with Inkscape (http://www.inkscape.org/) -->

<svg
   version="1.1"
   id="svg1"
   width="11719.547"
   height="14181.467"
   viewBox="0 0 11719.547 14181.467"
  
  
  
   xmlns="http://www.w3.org/2000/svg"
   xmlns:svg="http://www.w3.org/2000/svg">
  <defs
     id="defs1">
    <clipPath
       clipPathUnits="userSpaceOnUse"
       id="clipPath3">
      <path
         d="M 0,1 H 87896.6 V 106361 H 0 Z"
         transform="translate(0,0.0025)"
         id="path3" />
    </clipPath>
    <clipPath
       clipPathUnits="userSpaceOnUse"
       id="clipPath5">
      <path
         d="M 0,1 H 87896.6 V 106361 H 0 Z"
         transform="translate(0,0.0025)"
         id="path5" />
    </clipPath>
    <clipPath
       clipPathUnits="userSpaceOnUse"
       id="clipPath7">
      <path
         d="M 0,1 H 87896.6 V 106361 H 0 Z"
         transform="translate(0,0.0025)"
         id="path7" />
    </clipPath>
    <clipPath
       clipPathUnits="userSpaceOnUse"
       id="clipPath9">
      <path
         d="M 0,1 H 87896.6 V 106361 H 0 Z"
         transform="translate(0,0.0025)"
         id="path9" />
    </clipPath>
    <clipPath
       clipPathUnits="userSpaceOnUse"
       id="clipPath11">
      <path
         d="M 0,1 H 87896.6 V 106361 H 0 Z"
         transform="translate(0,0.0025)"
         id="path11" />
    </clipPath>
    <clipPath
       clipPathUnits="userSpaceOnUse"
       id="clipPath13">
      <path
         d="M 0,1 H 87896.6 V 106361 H 0 Z"
         transform="translate(0,0.0025)"
         id="path13" />
    </clipPath>
    <clipPath
       clipPathUnits="userSpaceOnUse"
       id="clipPath15">
      <path
         d="M 0,1 H 87896.6 V 106361 H 0 Z"
         transform="translate(0,0.0025)"
         id="path15" />
    </clipPath>
    <clipPath
       clipPathUnits="userSpaceOnUse"
       id="clipPath17">
      <path
         d="M 0,1 H 87896.6 V 106361 H 0 Z"
         transform="translate(0,0.0025)"
         id="path17" />
    </clipPath>
    <clipPath
       clipPathUnits="userSpaceOnUse"
       id="clipPath19">
      <path
         d="M 0,1 H 87896.6 V 106361 H 0 Z"
         transform="translate(0,0.0025)"
         id="path19" />
    </clipPath>
    <clipPath
       clipPathUnits="userSpaceOnUse"
       id="clipPath21">
      <path
         d="M 0,1 H 87896.6 V 106361 H 0 Z"
         transform="translate(0,0.0025)"
         id="path21" />
    </clipPath>
    <clipPath
       clipPathUnits="userSpaceOnUse"
       id="clipPath23">
      <path
         d="M 0,1 H 87896.6 V 106361 H 0 Z"
         transform="translate(0,0.0025)"
         id="path23" />
    </clipPath>
    <clipPath
       clipPathUnits="userSpaceOnUse"
       id="clipPath25">
      <path
         d="M 0,1 H 87896.6 V 106361 H 0 Z"
         transform="translate(0,0.0025)"
         id="path25" />
    </clipPath>
    <clipPath
       clipPathUnits="userSpaceOnUse"
       id="clipPath27">
      <path
         d="M 0,1 H 87896.6 V 106361 H 0 Z"
         transform="translate(0,0.0025)"
         id="path27" />
    </clipPath>
    <clipPath
       clipPathUnits="userSpaceOnUse"
       id="clipPath29">
      <path
         d="M 0,1 H 87896.6 V 106361 H 0 Z"
         transform="translate(0,0.0025)"
         id="path29" />
    </clipPath>
    <clipPath
       clipPathUnits="userSpaceOnUse"
       id="clipPath31">
      <path
         d="M 0,1 H 87896.6 V 106361 H 0 Z"
         transform="translate(0,0.0025)"
         id="path31" />
    </clipPath>
    <clipPath
       clipPathUnits="userSpaceOnUse"
       id="clipPath33">
      <path
         d="M 0,1 H 87896.6 V 106361 H 0 Z"
         transform="translate(0,0.0025)"
         id="path33" />
    </clipPath>
    <clipPath
       clipPathUnits="userSpaceOnUse"
       id="clipPath35">
      <path
         d="M 0,1 H 87896.6 V 106361 H 0 Z"
         transform="translate(0,0.0025)"
         id="path35" />
    </clipPath>
    <clipPath
       clipPathUnits="userSpaceOnUse"
       id="clipPath37">
      <path
         d="M 0,1 H 87896.6 V 106361 H 0 Z"
         transform="translate(0,0.0025)"
         id="path37" />
    </clipPath>
    <clipPath
       clipPathUnits="userSpaceOnUse"
       id="clipPath39">
      <path
         d="M 0,1 H 87896.6 V 106361 H 0 Z"
         transform="translate(0,0.0025)"
         id="path39" />
    </clipPath>
    <clipPath
       clipPathUnits="userSpaceOnUse"
       id="clipPath41">
      <path
         d="M 0,1 H 87896.6 V 106361 H 0 Z"
         transform="translate(0,0.0025)"
         id="path41" />
    </clipPath>
    <clipPath
       clipPathUnits="userSpaceOnUse"
       id="clipPath43">
      <path
         d="M 0,1 H 87896.6 V 106361 H 0 Z"
         transform="translate(0,0.0025)"
         id="path43" />
    </clipPath>
    <clipPath
       clipPathUnits="userSpaceOnUse"
       id="clipPath45">
      <path
         d="M 0,1 H 87896.6 V 106361 H 0 Z"
         transform="translate(0,0.0025)"
         id="path45" />
    </clipPath>
    <clipPath
       clipPathUnits="userSpaceOnUse"
       id="clipPath47">
      <path
         d="M 0,1 H 87896.6 V 106361 H 0 Z"
         transform="translate(0,0.0025)"
         id="path47" />
    </clipPath>
    <clipPath
       clipPathUnits="userSpaceOnUse"
       id="clipPath49">
      <path
         d="M 0,1 H 87896.6 V 106361 H 0 Z"
         transform="translate(0,0.0025)"
         id="path49" />
    </clipPath>
    <clipPath
       clipPathUnits="userSpaceOnUse"
       id="clipPath51">
      <path
         d="M 0,1 H 87896.6 V 106361 H 0 Z"
         transform="translate(0,0.0025)"
         id="path51" />
    </clipPath>
    <clipPath
       clipPathUnits="userSpaceOnUse"
       id="clipPath53">
      <path
         d="M 0,1 H 87896.6 V 106361 H 0 Z"
         transform="translate(0,0.0025)"
         id="path53" />
    </clipPath>
    <clipPath
       clipPathUnits="userSpaceOnUse"
       id="clipPath55">
      <path
         d="M 0,1 H 87896.6 V 106361 H 0 Z"
         transform="translate(0,0.0025)"
         id="path55" />
    </clipPath>
    <clipPath
       clipPathUnits="userSpaceOnUse"
       id="clipPath57">
      <path
         d="M 0,1 H 87896.6 V 106361 H 0 Z"
         transform="translate(0,0.0025)"
         id="path57" />
    </clipPath>
  </defs>
  
  <g
     id="g1"
    
    >
    <g
       id="group-R5">
      <path
         id="path2"
         d="M 1811.23,89575.7 H 3092.3 c -412.09,1207.4 -636.85,2536.8 -636.85,3954.8 0,6047.4 4082.58,10558.5 9699.85,10558.5 2792.7,0 5187.5,-981 6937,-2547 l 1442.9,1872 c -2148.9,1873 -5033.9,2947 -8379.9,2947 C 5156.52,106361 0,100959 0,93530.5 0,90888 655.313,88503.9 1811.23,86526.1 v 3049.6"
         style="fill:#231f20;fill-opacity:1;fill-rule:nonzero;stroke:none"
         transform="matrix(0.13333333,0,0,-0.13333333,0,14181.467)"
         clip-path="url(#clipPath3)" />
      <path
         id="path4"
         d="m 16800.4,80806.8 c 574.5,-1345.3 889.8,-2865.9 889.8,-4500.7 0,-5863.3 -4082.5,-10252.7 -9730.55,-10252.7 H 4951.4 v 20566 h 3008.25 c 2697.15,0 5035.65,-1009.6 6744.75,-2704.7 844.4,208 1642.5,522.2 2382.5,938.5 -2189.8,2488.4 -5401.7,3976 -9127.25,3976 H 2557.21 V 63843.5 h 5402.44 c 6998.55,0 12186.05,5218.2 12186.05,12462.6 0,2012.4 -398.5,3868.6 -1121,5502.8 -702.5,-402.7 -1446.1,-736.9 -2224.3,-1002.1"
         style="fill:#231f20;fill-opacity:1;fill-rule:nonzero;stroke:none"
         transform="matrix(0.13333333,0,0,-0.13333333,0,14181.467)"
         clip-path="url(#clipPath5)" />
      <path
         id="path6"
         d="m 10914.8,80758.7 c 32.5,-3.1 65.2,-5.4 97.7,-8.3 148.8,-12.8 298.4,-23.2 448.9,-30.9 47.4,-2.7 94.6,-5.3 142.1,-7.3 182.7,-7.5 366.4,-12.6 551.8,-12.6 3376.2,0 6261.9,1105.1 8441,3008.1 l -1442.6,1842 c -1780.2,-1596 -4174.7,-2578.1 -6998.4,-2578.1 -153.6,0 -305.7,3.7 -456.9,10.3 -60,2.8 -118.9,7.8 -178.5,11.5 -89.9,5.6 -179.9,10.7 -268.8,18.5 -74.6,6.6 -148.2,15.7 -222.1,24 -72,8 -144.3,15.4 -215.7,24.8 -82.2,11.1 -163.4,24.3 -244.9,37.4 -61.3,9.7 -122.8,19.1 -183.8,29.9 -86.2,15.5 -171.6,33.1 -256.9,50.8 -54.7,11.2 -109.5,22.4 -163.86,34.6 -87.36,19.9 -174.03,41.3 -260.39,63.4 -51.41,13.1 -102.83,26.4 -153.78,40.4 -85.89,23.4 -171.02,48.3 -255.84,74.2 -51.72,15.8 -103.29,31.8 -154.56,48.5 -80.59,26 -160.63,53.2 -240.15,81.2 -1205.7,427.8 -2286.27,1091.4 -3201.74,1950.6 v -2975.6 c 1217.64,-760.8 2591.7,-1299.1 4081.5,-1577.7 1,-0.3 2.08,-0.5 3.16,-0.7 370.66,-69.2 748.26,-122.8 1132.76,-159"
         style="fill:#231f20;fill-opacity:1;fill-rule:nonzero;stroke:none"
         transform="matrix(0.13333333,0,0,-0.13333333,0,14181.467)"
         clip-path="url(#clipPath7)" />
      <path
         id="path8"
         d="m 58752.6,63843.5 h 5899.6 v 2209.9 h -5899.6 v -2209.9"
         style="fill:#231f20;fill-opacity:1;fill-rule:nonzero;stroke:none"
         transform="matrix(0.13333333,0,0,-0.13333333,0,14181.467)"
         clip-path="url(#clipPath9)" />
      <path
         id="path10"
         d="m 42980.9,84379.2 c -323.1,0 -585,262.1 -585,585.5 0,323.3 261.9,585 585,585 323.4,0 585.7,-261.7 585.7,-585 0,-323.4 -262.3,-585.5 -585.7,-585.5 z m 1197,-18325.8 V 106023 H 41784.1 V 63843.5 h 13082 v 2209.9 H 44177.9"
         style="fill:#231f20;fill-opacity:1;fill-rule:nonzero;stroke:none"
         transform="matrix(0.13333333,0,0,-0.13333333,0,14181.467)"
         clip-path="url(#clipPath11)" />
      <path
         id="path12"
         d="m 56840.2,64351.8 c -323.4,0 -585.3,262.3 -585.3,585.6 0,323.3 261.9,585.3 585.3,585.3 322.8,0 585.3,-262 585.3,-585.3 0,-323.3 -262.5,-585.6 -585.3,-585.6 z m 6445.7,24477.4 -6476.6,-11663.9 -6445.9,11663.9 h -2670.3 l 7919,-14396.1 V 56152.8 h 2394.3 v 18280.3 l 7980.8,14396.1 h -2701.3"
         style="fill:#231f20;fill-opacity:1;fill-rule:nonzero;stroke:none"
         transform="matrix(0.13333333,0,0,-0.13333333,0,14181.467)"
         clip-path="url(#clipPath13)" />
      <path
         id="path14"
         d="m 38505.4,84379.2 c -323.1,0 -585,262.1 -585,585.5 0,323.3 261.9,585 585,585 323.5,0 585.7,-261.7 585.7,-585 0,-323.4 -262.2,-585.5 -585.7,-585.5 z M 37332.6,72315.1 c 0,-3621.6 -2762.1,-6537.5 -6322.8,-6537.5 -3591.7,0 -6354.2,2915.9 -6354.2,6537.5 v 20755.2 h 12677 z M 23421.1,84379.2 c -323.4,0 -585.1,262.1 -585.1,585.5 0,323.3 261.7,585 585.1,585 323.2,0 585.4,-261.7 585.4,-585 0,-323.4 -262.2,-585.5 -585.4,-585.5 z m 13942.5,21643.8 -31,-10742.9 h -12677 l -30.8,10742.9 H 22231 l 30.8,-33707.9 c 0,-4942.1 3836.3,-8809 8748,-8809 4880.4,0 8717.2,3866.9 8717.2,8809 l 31,33707.9 h -2394.4"
         style="fill:#231f20;fill-opacity:1;fill-rule:nonzero;stroke:none"
         transform="matrix(0.13333333,0,0,-0.13333333,0,14181.467)"
         clip-path="url(#clipPath15)" />
      <path
         id="path16"
         d="M 1811.23,33423 H 3092.3 c -412.09,1207.5 -636.85,2536.9 -636.85,3954.9 0,6047.4 4082.58,10558.8 9699.85,10558.8 2792.7,0 5187.5,-981.8 6937,-2547.2 l 1442.9,1872.1 c -2148.9,1872.8 -5033.9,2946.8 -8379.9,2946.8 C 5156.52,50208.4 0,44805.9 0,37377.9 0,34735.4 655.313,32351.3 1811.23,30373.5 V 33423"
         style="fill:#ffffff;fill-opacity:1;fill-rule:nonzero;stroke:none"
         transform="matrix(0.13333333,0,0,-0.13333333,0,14181.467)"
         clip-path="url(#clipPath17)" />
      <path
         id="path18"
         d="m 16800.4,24654.1 c 574.5,-1345.2 889.8,-2865.8 889.8,-4500.6 0,-5863.3 -4082.5,-10252.7 -9730.55,-10252.7 H 4951.4 v 20566 h 3008.25 c 2697.15,0 5035.65,-1009.7 6744.75,-2704.7 844.4,208 1642.5,522.2 2382.5,938.4 -2189.8,2488.4 -5401.7,3976.1 -9127.25,3976.1 H 2557.21 V 7690.91 h 5402.44 c 6998.55,0 12186.05,5218.19 12186.05,12462.59 0,2012.4 -398.5,3868.6 -1121,5502.8 -702.5,-402.7 -1446.1,-736.9 -2224.3,-1002.2"
         style="fill:#ffffff;fill-opacity:1;fill-rule:nonzero;stroke:none"
         transform="matrix(0.13333333,0,0,-0.13333333,0,14181.467)"
         clip-path="url(#clipPath19)" />
      <path
         id="path20"
         d="m 10914.8,24606.1 c 32.5,-3.1 65.2,-5.4 97.7,-8.3 148.8,-12.8 298.4,-23.2 448.9,-30.9 47.4,-2.7 94.6,-5.3 142.1,-7.3 182.7,-7.5 366.4,-12.6 551.8,-12.6 3376.2,0 6261.9,1105.1 8441,3008.1 l -1442.6,1842 C 17373.5,27801.1 14979,26819 12155.3,26819 c -153.6,0 -305.7,3.7 -456.9,10.3 -60,2.7 -118.9,7.8 -178.5,11.5 -89.9,5.6 -179.9,10.6 -268.8,18.5 -74.6,6.6 -148.2,15.7 -222.1,24 -72,8 -144.3,15.4 -215.7,24.8 -82.2,11.1 -163.4,24.3 -244.9,37.4 -61.3,9.7 -122.8,19.1 -183.8,29.9 -86.2,15.5 -171.6,33.1 -256.9,50.8 -54.7,11.2 -109.5,22.4 -163.86,34.6 -87.36,19.9 -174.03,41.2 -260.39,63.4 -51.41,13.1 -102.83,26.3 -153.78,40.3 -85.89,23.4 -171.02,48.4 -255.84,74.2 -51.72,15.9 -103.29,31.9 -154.56,48.5 -80.59,26.1 -160.63,53.3 -240.15,81.3 -1205.7,427.8 -2286.27,1091.4 -3201.74,1950.6 v -2975.6 c 1217.64,-760.8 2591.7,-1299.1 4081.5,-1577.8 1,-0.3 2.08,-0.4 3.16,-0.6 370.66,-69.2 748.26,-122.8 1132.76,-159"
         style="fill:#ffffff;fill-opacity:1;fill-rule:nonzero;stroke:none"
         transform="matrix(0.13333333,0,0,-0.13333333,0,14181.467)"
         clip-path="url(#clipPath21)" />
      <path
         id="path22"
         d="m 58752.6,7690.91 h 5899.6 V 9900.8 H 58752.6 V 7690.91"
         style="fill:#ffffff;fill-opacity:1;fill-rule:nonzero;stroke:none"
         transform="matrix(0.13333333,0,0,-0.13333333,0,14181.467)"
         clip-path="url(#clipPath23)" />
      <path
         id="path24"
         d="m 42980.9,28226.6 c -323.1,0 -585,262.1 -585,585.5 0,323.3 261.9,585 585,585 323.4,0 585.7,-261.7 585.7,-585 0,-323.4 -262.3,-585.5 -585.7,-585.5 z m 1197,-18325.8 V 49870.7 H 41784.1 V 7690.91 h 13082 V 9900.8 H 44177.9"
         style="fill:#ffffff;fill-opacity:1;fill-rule:nonzero;stroke:none"
         transform="matrix(0.13333333,0,0,-0.13333333,0,14181.467)"
         clip-path="url(#clipPath25)" />
      <path
         id="path26"
         d="m 56840.2,8199.2 c -323.4,0 -585.3,262.3 -585.3,585.6 0,323.3 261.9,585.3 585.3,585.3 322.8,0 585.3,-262 585.3,-585.3 0,-323.3 -262.5,-585.6 -585.3,-585.6 z m 6445.7,24477.4 -6476.6,-11663.9 -6445.9,11663.9 h -2670.3 l 7919,-14396.1 V 1 h 2394.3 v 18279.5 l 7980.8,14396.1 h -2701.3"
         style="fill:#ffffff;fill-opacity:1;fill-rule:nonzero;stroke:none"
         transform="matrix(0.13333333,0,0,-0.13333333,0,14181.467)"
         clip-path="url(#clipPath27)" />
      <path
         id="path28"
         d="m 38505.4,28226.6 c -323.1,0 -585,262.1 -585,585.5 0,323.3 261.9,585 585,585 323.5,0 585.7,-261.7 585.7,-585 0,-323.4 -262.2,-585.5 -585.7,-585.5 z M 37332.6,16162.5 c 0,-3621.6 -2762.1,-6537.5 -6322.8,-6537.5 -3591.7,0 -6354.2,2915.9 -6354.2,6537.5 v 20755.2 h 12677 z M 23421.1,28226.6 c -323.4,0 -585.1,262.1 -585.1,585.5 0,323.3 261.7,585 585.1,585 323.2,0 585.4,-261.7 585.4,-585 0,-323.4 -262.2,-585.5 -585.4,-585.5 z m 13942.5,21644.1 -31,-10743.2 h -12677 l -30.8,10743.2 H 22231 l 30.8,-33708.2 c 0,-4942.1 3836.3,-8809 8748,-8809 4880.4,0 8717.2,3866.9 8717.2,8809 l 31,33708.2 h -2394.4"
         style="fill:#ffffff;fill-opacity:1;fill-rule:nonzero;stroke:none"
         transform="matrix(0.13333333,0,0,-0.13333333,0,14181.467)"
         clip-path="url(#clipPath29)" />
      <path
         id="path30"
         d="m 72264.1,101044 h 312 c -100.4,294 -155.1,618 -155.1,963 0,1473 994.5,2572 2362.8,2572 680.2,0 1263.6,-239 1689.7,-620 l 351.5,456 c -523.4,456 -1226.2,718 -2041.2,718 -1704.9,0 -2960.9,-1316 -2960.9,-3126 0,-643 159.6,-1224 441.2,-1706 v 743"
         style="fill:#231f20;fill-opacity:1;fill-rule:nonzero;stroke:none"
         transform="matrix(0.13333333,0,0,-0.13333333,0,14181.467)"
         clip-path="url(#clipPath31)" />
      <path
         id="path32"
         d="m 75915.3,98908 c 139.9,-327.7 216.7,-698.1 216.7,-1096.3 0,-1428.2 -994.5,-2497.5 -2370.3,-2497.5 H 73029 v 5009.8 h 732.7 c 657,0 1226.7,-246 1643,-658.9 205.7,50.6 400.1,127.2 580.3,228.5 -533.3,606.4 -1315.8,968.4 -2223.3,968.4 h -1315.9 v -6086.1 h 1315.9 c 1704.8,0 2968.4,1271.1 2968.4,3035.8 0,490.2 -97,942.3 -273,1340.4 -171.2,-98.1 -352.3,-179.5 -541.8,-244.1"
         style="fill:#231f20;fill-opacity:1;fill-rule:nonzero;stroke:none"
         transform="matrix(0.13333333,0,0,-0.13333333,0,14181.467)"
         clip-path="url(#clipPath33)" />
      <path
         id="path34"
         d="m 74481.6,98896.3 c 7.9,-0.8 15.9,-1.3 23.8,-2 36.2,-3.1 72.7,-5.7 109.3,-7.6 11.6,-0.6 23.1,-1.2 34.7,-1.7 44.5,-1.9 89.2,-3.1 134.4,-3.1 822.4,0 1525.3,269.2 2056.1,732.7 l -351.4,448.4 c -433.6,-388.4 -1016.9,-627.7 -1704.7,-627.7 -37.4,0 -74.5,0.9 -111.3,2.5 -14.6,0.7 -29,2 -43.5,2.8 -21.9,1.4 -43.8,2.6 -65.5,4.5 -18.2,1.7 -36.1,3.9 -54.1,5.9 -17.5,2 -35.1,3.8 -52.5,6 -20.1,2.7 -39.8,6 -59.7,9.1 -14.9,2.4 -29.9,4.7 -44.8,7.3 -20.9,3.8 -41.8,8.1 -62.5,12.4 -13.4,2.7 -26.7,5.5 -39.9,8.4 -21.3,4.9 -42.4,10.1 -63.5,15.5 -12.5,3.2 -25,6.4 -37.4,9.8 -21,5.7 -41.7,11.8 -62.4,18.1 -12.6,3.8 -25.1,7.7 -37.6,11.8 -19.6,6.3 -39.1,13 -58.5,19.8 -293.7,104.2 -556.9,265.8 -779.9,474.8 v -724.5 c 296.6,-185.3 631.3,-316.4 994.2,-384.3 0.2,-0.1 0.5,-0.1 0.8,-0.2 90.3,-16.9 182.2,-29.9 275.9,-38.7"
         style="fill:#231f20;fill-opacity:1;fill-rule:nonzero;stroke:none"
         transform="matrix(0.13333333,0,0,-0.13333333,0,14181.467)"
         clip-path="url(#clipPath35)" />
      <path
         id="path36"
         d="m 86134.3,94775.9 h 1437.1 v 538.3 h -1437.1 v -538.3"
         style="fill:#231f20;fill-opacity:1;fill-rule:nonzero;stroke:none"
         transform="matrix(0.13333333,0,0,-0.13333333,0,14181.467)"
         clip-path="url(#clipPath37)" />
      <path
         id="path38"
         d="m 82292.5,99778.2 c -78.7,0 -142.5,63.9 -142.5,142.6 0,78.8 63.8,142.2 142.5,142.2 78.8,0 142.7,-63.4 142.7,-142.2 0,-78.7 -63.9,-142.6 -142.7,-142.6 z m 291.6,-4464 V 105050 H 82001 V 94775.9 h 3186.6 v 538.3 h -2603.5"
         style="fill:#231f20;fill-opacity:1;fill-rule:nonzero;stroke:none"
         transform="matrix(0.13333333,0,0,-0.13333333,0,14181.467)"
         clip-path="url(#clipPath39)" />
      <path
         id="path40"
         d="m 85668.5,94899.8 c -78.8,0 -142.6,63.9 -142.6,142.6 0,78.7 63.8,142.6 142.6,142.6 78.6,0 142.6,-63.9 142.6,-142.6 0,-78.7 -64,-142.6 -142.6,-142.6 z m 1570.1,5962.2 -1577.6,-2841 -1570.2,2841 h -650.4 l 1929,-3506.5 v -4452.9 h 583.2 v 4452.9 l 1944,3506.5 h -658"
         style="fill:#231f20;fill-opacity:1;fill-rule:nonzero;stroke:none"
         transform="matrix(0.13333333,0,0,-0.13333333,0,14181.467)"
         clip-path="url(#clipPath41)" />
      <path
         id="path42"
         d="m 81202.4,99778.2 c -78.8,0 -142.5,63.9 -142.5,142.6 0,78.8 63.7,142.2 142.5,142.2 78.8,0 142.6,-63.4 142.6,-142.2 0,-78.7 -63.8,-142.6 -142.6,-142.6 z m -285.7,-2938.7 c 0,-882.2 -672.8,-1592.4 -1540.2,-1592.4 -874.9,0 -1547.8,710.2 -1547.8,1592.4 v 5055.5 h 3088 z M 77528,99778.2 c -78.8,0 -142.5,63.9 -142.5,142.6 0,78.8 63.7,142.2 142.5,142.2 78.7,0 142.6,-63.4 142.6,-142.2 0,-78.7 -63.9,-142.6 -142.6,-142.6 z m 3396.2,5271.8 -7.5,-2616 h -3088 l -7.5,2616 h -583.1 l 7.5,-8210.5 c 0,-1203.8 934.5,-2145.8 2130.9,-2145.8 1188.8,0 2123.4,942 2123.4,2145.8 l 7.6,8210.5 h -583.3"
         style="fill:#231f20;fill-opacity:1;fill-rule:nonzero;stroke:none"
         transform="matrix(0.13333333,0,0,-0.13333333,0,14181.467)"
         clip-path="url(#clipPath43)" />
      <path
         id="path44"
         d="m 72264.1,86483.4 h 312 c -100.4,294.1 -155.1,617.9 -155.1,963.3 0,1473.1 994.5,2572 2362.8,2572 680.2,0 1263.6,-239.1 1689.7,-620.4 l 351.5,456 c -523.4,456.2 -1226.2,717.8 -2041.2,717.8 -1704.9,0 -2960.9,-1316 -2960.9,-3125.4 0,-643.7 159.6,-1224.4 441.2,-1706.2 v 742.9"
         style="fill:#ffffff;fill-opacity:1;fill-rule:nonzero;stroke:none"
         transform="matrix(0.13333333,0,0,-0.13333333,0,14181.467)"
         clip-path="url(#clipPath45)" />
      <path
         id="path46"
         d="m 75915.3,84347.4 c 139.9,-327.7 216.7,-698.1 216.7,-1096.3 0,-1428.3 -994.5,-2497.5 -2370.3,-2497.5 H 73029 v 5009.7 h 732.7 c 657,0 1226.7,-246 1643,-658.9 205.7,50.7 400.1,127.2 580.3,228.6 -533.3,606.2 -1315.8,968.6 -2223.3,968.6 h -1315.9 v -6086.3 h 1315.9 c 1704.8,0 2968.4,1271.1 2968.4,3035.8 0,490.2 -97,942.3 -273,1340.4 -171.2,-98.1 -352.3,-179.5 -541.8,-244.1"
         style="fill:#ffffff;fill-opacity:1;fill-rule:nonzero;stroke:none"
         transform="matrix(0.13333333,0,0,-0.13333333,0,14181.467)"
         clip-path="url(#clipPath47)" />
      <path
         id="path48"
         d="m 74481.6,84335.7 c 7.9,-0.8 15.9,-1.3 23.8,-2.1 36.2,-3.1 72.7,-5.6 109.3,-7.5 11.6,-0.6 23.1,-1.3 34.7,-1.8 44.5,-1.8 89.2,-3 134.4,-3 822.4,0 1525.3,269.2 2056.1,732.7 l -351.4,448.7 c -433.6,-388.8 -1016.9,-628 -1704.7,-628 -37.4,0 -74.5,0.9 -111.3,2.5 -14.6,0.7 -29,1.9 -43.5,2.8 -21.9,1.4 -43.8,2.6 -65.5,4.5 -18.2,1.6 -36.1,3.8 -54.1,5.9 -17.5,1.9 -35.1,3.7 -52.5,6 -20.1,2.7 -39.8,5.9 -59.7,9.1 -14.9,2.4 -29.9,4.7 -44.8,7.3 -20.9,3.8 -41.8,8.1 -62.5,12.4 -13.4,2.7 -26.7,5.4 -39.9,8.4 -21.3,4.8 -42.4,10.1 -63.5,15.5 -12.5,3.1 -25,6.4 -37.4,9.8 -21,5.7 -41.7,11.8 -62.4,18.1 -12.6,3.8 -25.1,7.7 -37.6,11.8 -19.6,6.3 -39.1,12.9 -58.5,19.8 -293.7,104.2 -556.9,265.8 -779.9,475.1 v -724.8 c 296.6,-185.3 631.3,-316.5 994.2,-384.4 0.2,0 0.5,-0.1 0.8,-0.1 90.3,-16.9 182.2,-29.9 275.9,-38.7"
         style="fill:#ffffff;fill-opacity:1;fill-rule:nonzero;stroke:none"
         transform="matrix(0.13333333,0,0,-0.13333333,0,14181.467)"
         clip-path="url(#clipPath49)" />
      <path
         id="path50"
         d="m 86134.3,80215.3 h 1437.1 v 538.3 h -1437.1 v -538.3"
         style="fill:#ffffff;fill-opacity:1;fill-rule:nonzero;stroke:none"
         transform="matrix(0.13333333,0,0,-0.13333333,0,14181.467)"
         clip-path="url(#clipPath51)" />
      <path
         id="path52"
         d="m 82292.5,85217.6 c -78.7,0 -142.5,63.8 -142.5,142.6 0,78.8 63.8,142.5 142.5,142.5 78.8,0 142.7,-63.7 142.7,-142.5 0,-78.8 -63.9,-142.6 -142.7,-142.6 z m 291.6,-4464 v 9736.2 H 82001 V 80215.3 h 3186.6 v 538.3 h -2603.5"
         style="fill:#ffffff;fill-opacity:1;fill-rule:nonzero;stroke:none"
         transform="matrix(0.13333333,0,0,-0.13333333,0,14181.467)"
         clip-path="url(#clipPath53)" />
      <path
         id="path54"
         d="m 85668.5,80339.1 c -78.8,0 -142.6,63.9 -142.6,142.7 0,78.7 63.8,142.5 142.6,142.5 78.6,0 142.6,-63.8 142.6,-142.5 0,-78.8 -64,-142.7 -142.6,-142.7 z m 1570.1,5962.5 -1577.6,-2841.2 -1570.2,2841.2 h -650.4 l 1929,-3506.8 v -4452.9 h 583.2 v 4452.9 l 1944,3506.8 h -658"
         style="fill:#ffffff;fill-opacity:1;fill-rule:nonzero;stroke:none"
         transform="matrix(0.13333333,0,0,-0.13333333,0,14181.467)"
         clip-path="url(#clipPath55)" />
      <path
         id="path56"
         d="m 81202.4,85217.6 c -78.8,0 -142.5,63.8 -142.5,142.6 0,78.8 63.7,142.5 142.5,142.5 78.8,0 142.6,-63.7 142.6,-142.5 0,-78.8 -63.8,-142.6 -142.6,-142.6 z m -285.7,-2938.7 c 0,-882.2 -672.8,-1592.5 -1540.2,-1592.5 -874.9,0 -1547.8,710.3 -1547.8,1592.5 v 5055.7 h 3088 z M 77528,85217.6 c -78.8,0 -142.5,63.8 -142.5,142.6 0,78.8 63.7,142.5 142.5,142.5 78.7,0 142.6,-63.7 142.6,-142.5 0,-78.8 -63.9,-142.6 -142.6,-142.6 z m 3396.2,5272.2 -7.5,-2616.9 h -3088 l -7.5,2616.9 h -583.1 l 7.5,-8210.9 c 0,-1203.8 934.5,-2145.8 2130.9,-2145.8 1188.8,0 2123.4,942 2123.4,2145.8 l 7.6,8210.9 h -583.3"
         style="fill:#ffffff;fill-opacity:1;fill-rule:nonzero;stroke:none"
         transform="matrix(0.13333333,0,0,-0.13333333,0,14181.467)"
         clip-path="url(#clipPath57)" />
    </g>
  </g>
</svg>
